<svg width="445" height="151" viewBox="0 0 445 151" fill="none" xmlns="http://www.w3.org/2000/svg">
<path d="M171.931 39.9879H186.343L170.639 107.575H145.294L129.59 39.9879H144.002L155.73 95.6477H160.203L171.931 39.9879Z" fill="black"/>
<path d="M200.083 88.392C200.15 91.4401 200.945 93.6598 202.469 95.0513C204.059 96.3766 206.312 97.0392 209.227 97.0392C215.39 97.0392 220.889 96.8404 225.727 96.4428L228.51 96.1447L228.708 105.985C221.088 107.84 214.197 108.768 208.035 108.768C200.547 108.768 195.114 106.78 191.734 102.804C188.355 98.8283 186.665 92.3677 186.665 83.4224C186.665 65.598 193.987 56.6858 208.631 56.6858C223.076 56.6858 230.299 64.1734 230.299 79.1485L229.305 88.392H200.083ZM217.179 78.254C217.179 74.2783 216.549 71.5284 215.29 70.0044C214.031 68.4141 211.812 67.619 208.631 67.619C205.517 67.619 203.297 68.4473 201.972 70.1038C200.713 71.6941 200.05 74.4108 199.984 78.254H217.179Z" fill="black"/>
<path d="M237.829 107.575V57.8785H251.048V63.1463C256.614 59.8332 261.915 57.6797 266.951 56.6858V70.1038C261.584 71.2303 256.979 72.3898 253.136 73.5825L251.148 74.2783V107.575H237.829Z" fill="black"/>
<path d="M300.354 69.2093H288.129V89.5847C288.129 91.5726 288.162 92.9972 288.228 93.8586C288.361 94.6538 288.725 95.3495 289.321 95.9459C289.984 96.5422 290.978 96.8404 292.303 96.8404L299.857 96.6416L300.453 107.277C296.014 108.271 292.635 108.768 290.315 108.768C284.352 108.768 280.277 107.442 278.09 104.792C275.903 102.075 274.81 97.1054 274.81 89.8829V69.2093H268.946V57.8785H274.81V44.0629H288.129V57.8785H300.354V69.2093Z" fill="black"/>
<path d="M307.039 107.575V57.8785H320.358V107.575H307.039ZM307.039 51.5174V38H320.358V51.5174H307.039Z" fill="black"/>
<path d="M375.701 113.737C375.701 119.436 373.514 123.643 369.141 126.36C364.767 129.077 358.837 130.435 351.349 130.435C343.928 130.435 338.196 129.441 334.155 127.453C330.179 125.465 328.191 121.854 328.191 116.62C328.191 112.445 330.576 108.502 335.347 104.792C332.896 103.135 331.67 100.617 331.67 97.238C331.67 95.9127 332.664 93.7261 334.651 90.6781L335.546 89.2866C331.04 86.0397 328.787 81.2689 328.787 74.974C328.787 68.6129 330.676 64.0077 334.453 61.1585C338.296 58.3092 343.365 56.8846 349.66 56.8846C352.509 56.8846 355.325 57.2159 358.108 57.8785L359.698 58.1767L375.701 57.6797V68.3147L368.246 67.7184C369.704 69.9713 370.433 72.2242 370.433 74.4771C370.433 81.1032 368.743 85.6753 365.364 88.1932C361.984 90.7112 356.683 91.9702 349.461 91.9702C347.937 91.9702 346.579 91.8376 345.386 91.5726C344.723 93.2954 344.392 94.72 344.392 95.8465C344.392 96.9067 344.955 97.6355 346.082 98.0331C347.208 98.4307 349.859 98.6626 354.033 98.7289C362.382 98.7951 368.081 99.9216 371.129 102.108C374.177 104.229 375.701 108.105 375.701 113.737ZM341.311 115.228C341.311 118.077 344.79 119.502 351.747 119.502C358.771 119.502 362.283 117.845 362.283 114.532C362.283 112.743 361.686 111.584 360.494 111.054C359.301 110.59 356.783 110.325 352.94 110.258L343.994 109.563C342.205 111.352 341.311 113.24 341.311 115.228ZM342.106 74.5765C342.106 79.4136 344.624 81.8321 349.66 81.8321C354.762 81.8321 357.313 79.4136 357.313 74.5765C357.313 69.6731 354.762 67.2214 349.66 67.2214C344.624 67.2214 342.106 69.6731 342.106 74.5765Z" fill="black"/>
<path d="M384.465 63.5439C387.977 58.9718 393.841 56.6858 402.057 56.6858C410.274 56.6858 416.138 58.9718 419.65 63.5439C423.162 68.0497 424.918 74.4108 424.918 82.6273C424.918 100.054 417.298 108.768 402.057 108.768C386.817 108.768 379.197 100.054 379.197 82.6273C379.197 74.4108 380.953 68.0497 384.465 63.5439ZM394.702 93.8586C396.094 96.244 398.546 97.4368 402.057 97.4368C405.569 97.4368 407.988 96.244 409.313 93.8586C410.705 91.4732 411.4 87.7294 411.4 82.6273C411.4 77.5251 410.705 73.8145 409.313 71.4953C407.988 69.1761 405.569 68.0166 402.057 68.0166C398.546 68.0166 396.094 69.1761 394.702 71.4953C393.377 73.8145 392.715 77.5251 392.715 82.6273C392.715 87.7294 393.377 91.4732 394.702 93.8586Z" fill="black"/>
<path fill-rule="evenodd" clip-rule="evenodd" d="M79.073 36.1971C73.1211 33.7317 66.6818 32.6686 60.2533 33.0899C53.8248 33.5113 47.5794 35.4058 42.0003 38.6269L36.3711 41.8769L29.8711 30.6186L35.5003 27.3686C42.8063 23.1505 50.9848 20.6695 59.4031 20.1178C67.8213 19.566 76.2537 20.9582 84.0478 24.1866C91.842 27.4151 98.789 32.3932 104.351 38.736C109.914 45.0787 113.943 52.6161 116.126 60.765C118.31 68.9138 118.589 77.4558 116.943 85.73C115.298 94.0042 111.77 101.789 106.635 108.482C101.499 115.175 94.8924 120.597 87.3261 124.328C79.7598 128.059 70.0005 130 63.0003 130C56 130 51.9125 128.95 46.5446 126.727C41.3276 124.566 36.5873 121.399 32.5944 117.406C28.6015 113.413 25.4341 108.672 23.2732 103.455C21.1122 98.2384 20 92.6468 20 87C20 81.3532 21.1122 75.7616 23.2732 70.5446C25.4341 65.3276 28.6015 60.5873 32.5944 56.5944C36.5873 52.6015 41.3276 49.4341 46.5446 47.2732C51.7616 45.1122 57.3532 44 63 44C68.6468 44 74.2384 45.1122 79.4554 47.2732C84.6724 49.4341 89.4127 52.6015 93.4056 56.5944C97.3985 60.5873 100.566 65.3276 102.727 70.5446C103.656 72.7887 104.392 75.102 104.928 77.4593C105.191 72.9843 104.736 68.4835 103.569 64.1296C101.902 57.9068 98.8252 52.151 94.5775 47.3075C90.3298 42.4639 85.0249 38.6624 79.073 36.1971ZM37.0373 102.031C37.7747 88.0555 49.3405 76.9502 63.5 76.9502C77.1122 76.9502 88.3273 87.2135 89.8291 100.424C90.1474 99.7877 90.4434 99.1396 90.7164 98.4805C92.224 94.8407 93 90.9397 93 87C93 83.0604 92.224 79.1593 90.7164 75.5195C89.2087 71.8797 86.999 68.5726 84.2132 65.7868C81.4274 63.001 78.1203 60.7913 74.4805 59.2836C70.8407 57.776 66.9397 57 63 57C59.0603 57 55.1593 57.776 51.5195 59.2836C47.8797 60.7913 44.5726 63.001 41.7868 65.7868C39.001 68.5726 36.7913 71.8797 35.2836 75.5195C33.776 79.1593 33 83.0603 33 87C33 90.9397 33.776 94.8407 35.2836 98.4805C35.7904 99.7041 36.3766 100.89 37.0373 102.031ZM77 103.45C77 110.906 70.9558 116.95 63.5 116.95C56.0442 116.95 50 110.906 50 103.45C50 95.9944 56.0442 89.9502 63.5 89.9502C70.9558 89.9502 77 95.9944 77 103.45Z" fill="#0090F1"/>
</svg>
