<svg width="89" height="92" viewBox="0 0 89 92" fill="none" xmlns="http://www.w3.org/2000/svg">
<path d="M8.81722 4.38095C3.94747 4.38095 0 8.32381 0 13.1429V83.2381C0 88.0571 3.94747 92 8.81722 92H79.355C84.2265 92 88.1722 88.0571 88.1722 83.2381V13.1429C88.1722 8.32381 84.2265 4.38095 79.355 4.38095H8.81722Z" fill="#30497B"/>
<path d="M8.81722 0C3.94747 0 0 3.9227 0 8.7619V78.8571C0 83.6981 3.94747 87.619 8.81722 87.619H79.355C84.2265 87.619 88.1722 83.6981 88.1722 78.8571V8.7619C88.1722 3.9227 84.2265 0 79.355 0H8.81722Z" fill="#3B5998"/>
<path d="M66.1292 17.5238C56.3906 17.5238 48.4947 25.4095 48.4947 35.0476V48.1905H39.6775V61.3333H48.4947V92H61.7206V61.3333H72.5393L74.9464 48.1905H61.7206V35.0476C61.7206 32.419 63.6956 30.6667 66.1292 30.6667H74.9464V17.5238H66.1292Z" fill="#30497B"/>
<path d="M66.1292 13.1429C56.3906 13.1429 48.4947 20.9887 48.4947 30.6667V43.8095H39.6775V56.9524H48.4947V87.619H61.7206V56.9524H72.5393L74.9464 43.8095H61.7206V30.6667C61.7206 28.2471 63.6956 26.2857 66.1292 26.2857H74.9464V13.1429H66.1292Z" fill="#ECF0F1"/>
<path d="M48.4947 87.619H61.7206V92H48.4947V87.619Z" fill="#BDC3C7"/>
</svg>
