<svg width="93" height="92" viewBox="0 0 93 92" fill="none" xmlns="http://www.w3.org/2000/svg">
<path d="M59.4287 47.4141L38.4287 68.4141C38.0537 68.7891 37.545 68.9998 37.0146 68.9998C36.4843 68.9998 35.9756 68.7891 35.6006 68.4141C35.2256 68.039 35.0149 67.5304 35.0149 67C35.0149 66.4696 35.2256 65.961 35.6006 65.5859L53.1863 48H2C1.46957 48 0.96086 47.7893 0.585787 47.4142C0.210714 47.0391 0 46.5304 0 46C0 45.4696 0.210714 44.9609 0.585787 44.5858C0.96086 44.2107 1.46957 44 2 44H53.1863L35.6006 26.4141C35.2256 26.039 35.0149 25.5304 35.0149 25C35.0149 24.4696 35.2256 23.961 35.6006 23.5859C35.9756 23.2109 36.4843 23.0002 37.0146 23.0002C37.545 23.0002 38.0537 23.2109 38.4287 23.5859L59.4287 44.5859C59.6145 44.7716 59.7618 44.992 59.8624 45.2347C59.9629 45.4773 60.0146 45.7374 60.0146 46C60.0146 46.2626 59.9629 46.5227 59.8624 46.7653C59.7618 47.008 59.6145 47.2284 59.4287 47.4141ZM86.0146 0H50.0146C49.4842 0 48.9755 0.210714 48.6004 0.585787C48.2254 0.96086 48.0146 1.46957 48.0146 2C48.0146 2.53043 48.2254 3.03914 48.6004 3.41421C48.9755 3.78929 49.4842 4 50.0146 4H86.0146C86.5449 4.00057 87.0533 4.21146 87.4282 4.58641C87.8032 4.96136 88.0141 5.46974 88.0146 6V86C88.0141 86.5303 87.8032 87.0386 87.4282 87.4136C87.0533 87.7885 86.5449 87.9994 86.0146 88H50.0146C49.4842 88 48.9755 88.2107 48.6004 88.5858C48.2254 88.9609 48.0146 89.4696 48.0146 90C48.0146 90.5304 48.2254 91.0391 48.6004 91.4142C48.9755 91.7893 49.4842 92 50.0146 92H86.0146C87.6054 91.9982 89.1305 91.3655 90.2553 90.2407C91.3802 89.1158 92.0129 87.5908 92.0146 86V6C92.0129 4.40925 91.3802 2.88416 90.2553 1.75932C89.1305 0.63449 87.6054 0.00177734 86.0146 0Z" fill="black"/>
</svg>
