<svg width="89" height="89" viewBox="0 0 89 89" fill="none" xmlns="http://www.w3.org/2000/svg">
<path d="M87.3125 35.451H83.7615V35.268H44.085V52.902H68.9996C65.3648 63.1672 55.5978 70.536 44.085 70.536C29.4774 70.536 17.634 58.6926 17.634 44.085C17.634 29.4774 29.4774 17.634 44.085 17.634C50.8278 17.634 56.9622 20.1777 61.633 24.3327L74.1025 11.8633C66.2289 4.52532 55.697 0 44.085 0C19.7391 0 0 19.7391 0 44.085C0 68.4309 19.7391 88.17 44.085 88.17C68.4309 88.17 88.17 68.4309 88.17 44.085C88.17 41.1291 87.8658 38.2437 87.3125 35.451Z" fill="#FFC107"/>
<path d="M5.08301 23.5656L19.5671 34.1879C23.4863 24.4848 32.9778 17.634 44.085 17.634C50.8278 17.634 56.9622 20.1777 61.633 24.3327L74.1025 11.8633C66.2289 4.52532 55.697 0 44.085 0C27.152 0 12.4672 9.55983 5.08301 23.5656Z" fill="#FF3D00"/>
<path d="M44.085 88.17C55.4721 88.17 65.8189 83.8122 73.6418 76.7255L59.9975 65.1797C55.5713 68.5323 50.0695 70.536 44.085 70.536C32.6185 70.536 22.8823 63.2245 19.2144 53.021L4.83832 64.0974C12.1344 78.3743 26.9514 88.17 44.085 88.17Z" fill="#4CAF50"/>
<path d="M87.3126 35.451H83.7615V35.268H44.085V52.902H68.9997C67.2539 57.8329 64.082 62.0849 59.9909 65.1819C59.9931 65.1797 59.9953 65.1797 59.9975 65.1775L73.6418 76.7233C72.6763 77.6006 88.17 66.1275 88.17 44.085C88.17 41.1291 87.8658 38.2437 87.3126 35.451Z" fill="#1976D2"/>
</svg>
